<svg width="22" height="16" viewBox="0 0 22 16" fill="none" xmlns="http://www.w3.org/2000/svg">
<g clip-path="url(#clip0_6_59)">
<path fill-rule="evenodd" clip-rule="evenodd" d="M0.333374 0H30.7334V1.23125H0.333374V0ZM0.333374 2.4625H30.7334V3.69375H0.333374V2.4625ZM0.333374 4.92188H30.7334V6.15625H0.333374V4.92188ZM0.333374 7.38438H30.7334V8.61563H0.333374V7.38438ZM0.333374 9.84688H30.7334V11.0781H0.333374V9.84688ZM0.333374 12.3062H30.7334V13.5375H0.333374V12.3062ZM0.333374 14.7688H30.7334V16H0.333374V14.7688Z" fill="#BD3D44"/>
<path fill-rule="evenodd" clip-rule="evenodd" d="M0.333374 1.2312H30.7334V2.46245H0.333374V1.2312ZM0.333374 3.6937H30.7334V4.92183H0.333374V3.6937ZM0.333374 6.15308H30.7334V7.38433H0.333374V6.15308ZM0.333374 8.61558H30.7334V9.84683H0.333374V8.61558ZM0.333374 11.0781H30.7334V12.3093H0.333374V11.0781ZM0.333374 13.5375H30.7334V14.7687H0.333374V13.5375Z" fill="white"/>
<path fill-rule="evenodd" clip-rule="evenodd" d="M0.333374 0H12.4927V8.61563H0.333374V0Z" fill="#192F5D"/>
<path fill-rule="evenodd" clip-rule="evenodd" d="M1.34583 0.368652L1.45833 0.709277H1.81458L1.52708 0.918652L1.63645 1.2624L1.34583 1.0499L1.05833 1.25928L1.1677 0.918652L0.877075 0.709277H1.23958L1.34583 0.368652ZM3.37395 0.368652L3.48333 0.709277H3.8427L3.55208 0.918652L3.66145 1.2624L3.37395 1.0499L3.08333 1.25928L3.1927 0.918652L2.9052 0.709277H3.26145L3.37395 0.368652ZM5.39895 0.368652L5.51145 0.709277H5.86458L5.57708 0.918652L5.68645 1.2624L5.39583 1.0499L5.10833 1.25928L5.2177 0.918652L4.92708 0.709277H5.28645L5.39895 0.368652ZM7.42708 0.368652L7.53645 0.709277H7.89583L7.6052 0.918652L7.7177 1.2624L7.42708 1.0499L7.13645 1.25928L7.24895 0.918652L6.95833 0.709277H7.31458L7.42708 0.368652ZM9.45208 0.368652L9.56458 0.709277H9.92083L9.63333 0.918652L9.7427 1.2624L9.45208 1.0499L9.16458 1.25928L9.27395 0.918652L8.98645 0.709277H9.3427L9.45208 0.368652ZM11.4802 0.368652L11.5896 0.709277H11.949L11.6583 0.918652L11.7708 1.2624L11.4802 1.0499L11.1896 1.25928L11.3021 0.918652L11.0115 0.709277H11.3708L11.4802 0.368652ZM2.36145 1.23115L2.47083 1.57178H2.8302L2.53958 1.78115L2.64583 2.12178L2.36458 1.9124L2.07395 2.12178L2.17708 1.78115L1.89583 1.57178H2.25208L2.36145 1.23115ZM4.38645 1.23115L4.49895 1.57178H4.8552L4.56457 1.78115L4.67708 2.12178L4.38645 1.9124L4.09583 2.12178L4.20833 1.78115L3.9177 1.57178H4.27708L4.38645 1.23115ZM6.41458 1.23115L6.52395 1.57178H6.88333L6.5927 1.78115L6.70208 2.12178L6.41458 1.9124L6.12395 2.12178L6.23333 1.78115L5.94583 1.57178H6.30208L6.41458 1.23115ZM8.43958 1.23115L8.55208 1.57178H8.90833L8.6177 1.78115L8.7302 2.12178L8.43958 1.9124L8.15208 2.12178L8.26145 1.78115L7.97083 1.57178H8.33333L8.43958 1.23115ZM10.4677 1.23115L10.5771 1.57178H10.9365L10.6458 1.78115L10.7552 2.12178L10.4677 1.9124L10.1771 2.12178L10.2865 1.78115L9.99895 1.57178H10.3552L10.4677 1.23115ZM1.34583 2.09053L1.45833 2.4374H1.81458L1.52708 2.64678L1.63645 2.9874L1.34583 2.7749L1.05833 2.9874L1.1677 2.64365L0.877075 2.43428H1.23958L1.34583 2.09053ZM3.37395 2.09053L3.48333 2.43428H3.8427L3.55208 2.64365L3.66145 2.98428L3.37395 2.77178L3.08333 2.98428L3.1927 2.64053L2.9052 2.43115H3.26145L3.37395 2.09053ZM5.39895 2.09053L5.51145 2.43428H5.86458L5.57708 2.64365L5.68645 2.98428L5.39583 2.77178L5.10833 2.98428L5.2177 2.64053L4.92708 2.43115H5.28645L5.39895 2.09053ZM7.42708 2.09053L7.53645 2.43428H7.89583L7.6052 2.64365L7.7177 2.98428L7.42708 2.77178L7.13645 2.98428L7.24895 2.64053L6.95833 2.43115H7.31458L7.42708 2.09053ZM9.45208 2.09053L9.56458 2.43428H9.92083L9.63333 2.64365L9.7427 2.98428L9.45208 2.77178L9.16458 2.98428L9.27395 2.64053L8.98645 2.43115H9.3427L9.45208 2.09053ZM11.4802 2.09053L11.5896 2.43428H11.949L11.6583 2.64365L11.7708 2.98428L11.4802 2.77178L11.1896 2.98428L11.3021 2.64053L11.0115 2.43115H11.3708L11.4802 2.09053ZM2.36145 2.95303L2.47083 3.29365H2.8302L2.53958 3.50303L2.64895 3.84678L2.36145 3.63428L2.07083 3.84365L2.1802 3.50303L1.8927 3.29365H2.24895L2.36145 2.95303ZM4.38645 2.95303L4.49895 3.29365H4.8552L4.56457 3.50303L4.67708 3.84678L4.38645 3.63428L4.09583 3.84365L4.20833 3.50303L3.9177 3.29365H4.27708L4.38645 2.95303ZM6.41458 2.95303L6.52395 3.29365H6.88333L6.5927 3.50303L6.70208 3.84678L6.41458 3.63428L6.12395 3.84365L6.23333 3.50303L5.94583 3.29365H6.30208L6.41458 2.95303ZM8.43958 2.95303L8.55208 3.29365H8.90833L8.62083 3.50303L8.7302 3.84678L8.43958 3.63428L8.15208 3.84365L8.26145 3.50303L7.97083 3.29365H8.33333L8.43958 2.95303ZM10.4677 2.95303L10.5771 3.29365H10.9365L10.6458 3.50303L10.7552 3.84678L10.4677 3.63428L10.1771 3.84365L10.2865 3.50303L9.99895 3.29365H10.3552L10.4677 2.95303ZM1.34583 3.81553L1.45833 4.15615H1.81458L1.52708 4.36553L1.63645 4.70928L1.34583 4.49678L1.05833 4.70615L1.1677 4.36553L0.877075 4.15615H1.23958L1.34583 3.81553ZM3.37395 3.81553L3.48333 4.15615H3.8427L3.55208 4.36553L3.66145 4.70615L3.37395 4.49678L3.08333 4.70615L3.1927 4.36553L2.9052 4.15615H3.26145L3.37395 3.81553ZM5.39895 3.81553L5.51145 4.15615H5.86458L5.57708 4.36553L5.68645 4.70928L5.39583 4.49678L5.10833 4.70615L5.2177 4.36553L4.92708 4.15615H5.28645L5.39895 3.81553ZM7.42708 3.81553L7.53645 4.15615H7.89583L7.6052 4.36553L7.7177 4.70928L7.42708 4.49678L7.13645 4.70615L7.24895 4.36553L6.95833 4.15615H7.31458L7.42708 3.81553ZM9.45208 3.81553L9.56458 4.15615H9.92083L9.63333 4.36553L9.7427 4.70928L9.45208 4.49678L9.16458 4.70615L9.27395 4.36553L8.98645 4.15615H9.3427L9.45208 3.81553ZM11.4802 3.81553L11.5896 4.15615H11.949L11.6583 4.36553L11.7708 4.70928L11.4802 4.49678L11.1896 4.70615L11.3021 4.36553L11.0115 4.15615H11.3708L11.4802 3.81553ZM2.36145 4.67803L2.47083 5.01865H2.8302L2.53958 5.22803L2.64895 5.56865L2.36145 5.35615L2.07083 5.56865L2.1802 5.2249L1.8927 5.01553H2.24895L2.36145 4.67803ZM4.38645 4.67803L4.49895 5.01865H4.8552L4.56457 5.22803L4.67708 5.56865L4.38645 5.35615L4.09583 5.56865L4.20833 5.2249L3.9177 5.01553H4.27708L4.38645 4.67803ZM6.41458 4.67803L6.52395 5.01865H6.88333L6.5927 5.22803L6.70208 5.56865L6.41458 5.35615L6.12395 5.56865L6.23333 5.2249L5.94583 5.01553H6.30208L6.41458 4.67803ZM8.43958 4.67803L8.55208 5.01865H8.90833L8.62083 5.22803L8.7302 5.56865L8.43958 5.35615L8.15208 5.56865L8.26145 5.2249L7.97083 5.01553H8.33333L8.43958 4.67803ZM10.4677 4.67803L10.5771 5.01865H10.9365L10.6458 5.22803L10.7552 5.56865L10.4677 5.35615L10.1771 5.56865L10.2865 5.2249L9.99895 5.01553H10.3552L10.4677 4.67803ZM1.34583 5.5374L1.45833 5.88115H1.81458L1.52708 6.09053L1.63645 6.42803L1.34583 6.21865L1.05833 6.42803L1.1677 6.0874L0.877075 5.87803H1.23958L1.34583 5.5374ZM3.37395 5.5374L3.48333 5.88115H3.8427L3.55208 6.09053L3.66458 6.42803L3.37395 6.21865L3.08333 6.42803L3.19583 6.0874L2.9052 5.87803H3.26145L3.37395 5.5374ZM5.39895 5.5374L5.51145 5.88115H5.86458L5.57708 6.09053L5.68645 6.42803L5.39583 6.21865L5.10833 6.42803L5.2177 6.0874L4.92708 5.87803H5.28645L5.39895 5.5374ZM7.42708 5.5374L7.53645 5.88115H7.89583L7.6052 6.09053L7.7177 6.42803L7.42708 6.21865L7.13645 6.42803L7.24895 6.0874L6.95833 5.87803H7.31458L7.42708 5.5374ZM9.45208 5.5374L9.56458 5.88115H9.92083L9.63333 6.09053L9.7427 6.42803L9.45208 6.21865L9.16458 6.42803L9.27395 6.0874L8.98645 5.87803H9.3427L9.45208 5.5374ZM11.4802 5.5374L11.5896 5.88115H11.949L11.6583 6.09053L11.7708 6.42803L11.4802 6.21865L11.1896 6.42803L11.3021 6.0874L11.0115 5.87803H11.3708L11.4802 5.5374ZM2.36145 6.3999L2.47083 6.74053H2.8302L2.53958 6.9499L2.64895 7.29365L2.36145 7.08115L2.07083 7.29053L2.1802 6.9499L1.8927 6.74053H2.24895L2.36145 6.3999ZM4.38645 6.3999L4.49895 6.74053H4.8552L4.56457 6.9499L4.67708 7.29365L4.38645 7.08115L4.09583 7.29053L4.20833 6.9499L3.9177 6.74053H4.27708L4.38645 6.3999ZM6.41458 6.3999L6.52395 6.74053H6.88333L6.5927 6.9499L6.70208 7.29365L6.41458 7.08115L6.12395 7.29053L6.23333 6.9499L5.94583 6.74053H6.30208L6.41458 6.3999ZM8.43958 6.3999L8.55208 6.74053H8.90833L8.62083 6.9499L8.7302 7.29365L8.43958 7.08115L8.15208 7.29053L8.26145 6.9499L7.97083 6.74053H8.33333L8.43958 6.3999ZM10.4677 6.3999L10.5771 6.74053H10.9365L10.6458 6.9499L10.7552 7.29365L10.4677 7.08115L10.1771 7.29053L10.2865 6.9499L9.99895 6.74053H10.3552L10.4677 6.3999ZM1.34583 7.2624L1.45833 7.60303H1.81458L1.52708 7.8124L1.63645 8.15303L1.34583 7.94365L1.05833 8.15303L1.1677 7.80928L0.877075 7.5999H1.23958L1.34583 7.2624ZM3.37395 7.2624L3.48333 7.60303H3.8427L3.55208 7.8124L3.66458 8.15303L3.37395 7.94365L3.08333 8.15303L3.19583 7.80928L2.9052 7.5999H3.26145L3.37395 7.2624ZM5.39895 7.2624L5.51145 7.60303H5.86458L5.58333 7.8124L5.6927 8.15303L5.40208 7.94365L5.11458 8.15303L5.22395 7.80928L4.93333 7.5999H5.2927L5.39895 7.2624ZM7.42708 7.2624L7.53645 7.60303H7.89583L7.6052 7.8124L7.7177 8.15303L7.42708 7.94365L7.13645 8.15303L7.24895 7.80928L6.95833 7.5999H7.31458L7.42708 7.2624ZM9.45208 7.2624L9.56458 7.60303H9.92083L9.63333 7.8124L9.7427 8.15303L9.45208 7.94365L9.16458 8.15303L9.27395 7.80928L8.98645 7.5999H9.3427L9.45208 7.2624ZM11.4802 7.2624L11.5896 7.60303H11.949L11.6583 7.8124L11.7708 8.15303L11.4802 7.94365L11.1896 8.15303L11.3021 7.80928L11.0115 7.5999H11.3708L11.4802 7.2624Z" fill="white"/>
</g>
<defs>
<clipPath id="clip0_6_59">
<rect width="21.3333" height="16" fill="white" transform="translate(0.333374)"/>
</clipPath>
</defs>
</svg>
