<svg width="34" height="34" viewBox="0 0 34 34" fill="none" xmlns="http://www.w3.org/2000/svg">
<path d="M16.6563 0C13.362 0 10.1416 0.976872 7.40254 2.80708C4.66343 4.6373 2.52856 7.23865 1.26789 10.2822C0.00721689 13.3257 -0.322632 16.6747 0.320053 19.9057C0.962738 23.1367 2.54909 26.1046 4.87851 28.434C7.20793 30.7634 10.1758 32.3498 13.4068 32.9925C16.6378 33.6351 19.9868 33.3053 23.0303 32.0446C26.0739 30.7839 28.6752 28.6491 30.5054 25.91C32.3356 23.1709 33.3125 19.9505 33.3125 16.6562C33.3078 12.2402 31.5515 8.0063 28.4289 4.88365C25.3062 1.76101 21.0723 0.00466346 16.6563 0ZM23.0625 19.2188C23.0625 19.5586 22.9275 19.8845 22.6872 20.1247C22.447 20.365 22.1211 20.5 21.7813 20.5C21.4414 20.5 21.1156 20.365 20.8753 20.1247C20.635 19.8845 20.5 19.5586 20.5 19.2188V14.6239L12.4377 22.6877C12.3187 22.8068 12.1774 22.9012 12.0218 22.9656C11.8663 23.0301 11.6996 23.0632 11.5313 23.0632C11.3629 23.0632 11.1962 23.0301 11.0407 22.9656C10.8851 22.9012 10.7438 22.8068 10.6248 22.6877C10.5057 22.5687 10.4113 22.4274 10.3469 22.2718C10.2825 22.1163 10.2493 21.9496 10.2493 21.7812C10.2493 21.6129 10.2825 21.4462 10.3469 21.2907C10.4113 21.1351 10.5057 20.9938 10.6248 20.8748L18.6886 12.8125H14.0938C13.7539 12.8125 13.4281 12.6775 13.1878 12.4372C12.9475 12.1969 12.8125 11.8711 12.8125 11.5312C12.8125 11.1914 12.9475 10.8656 13.1878 10.6253C13.4281 10.385 13.7539 10.25 14.0938 10.25H21.7813C22.1211 10.25 22.447 10.385 22.6872 10.6253C22.9275 10.8656 23.0625 11.1914 23.0625 11.5312V19.2188Z" fill="#FBFBF8"/>
</svg>
